<svg xmlns="http://www.w3.org/2000/svg" xmlns:xlink="http://www.w3.org/1999/xlink" width="768" zoomAndPan="magnify" viewBox="0 0 576 576" height="768" preserveAspectRatio="xMidYMid meet" version="1.0"><defs><g/></defs><rect x="-57.6" width="691.2" fill="#ffffff" y="-57.6" height="691.2" fill-opacity="1"/><rect x="-57.6" width="691.2" fill="#eeeeee" y="-57.6" height="691.2" fill-opacity="1"/><rect x="-57.6" width="691.2" fill="#ffffff" y="-57.6" height="691.2" fill-opacity="1"/><rect x="-57.6" width="691.2" fill="#eeeeee" y="-57.6" height="691.2" fill-opacity="1"/><g fill="#2b2d42" fill-opacity="1"><g transform="translate(33.15737, 314.625007)"><g><path d="M 28.78125 0.828125 C 23.4375 0.828125 18.570312 -0.382812 14.1875 -2.8125 C 9.800781 -5.238281 6.78125 -8.410156 5.125 -12.328125 C 4.851562 -12.984375 4.71875 -13.535156 4.71875 -13.984375 C 4.71875 -14.804688 5.019531 -15.535156 5.625 -16.171875 C 6.226562 -16.804688 7.054688 -17.234375 8.109375 -17.453125 C 8.273438 -17.503906 8.550781 -17.53125 8.9375 -17.53125 C 9.8125 -17.53125 10.648438 -17.269531 11.453125 -16.75 C 12.253906 -16.226562 12.847656 -15.523438 13.234375 -14.640625 C 14.222656 -12.484375 16.175781 -10.660156 19.09375 -9.171875 C 22.019531 -7.691406 25.25 -6.953125 28.78125 -6.953125 C 32.914062 -6.953125 36.414062 -7.898438 39.28125 -9.796875 C 42.144531 -11.703125 43.578125 -14.304688 43.578125 -17.609375 C 43.578125 -20.753906 42.363281 -23.441406 39.9375 -25.671875 C 37.519531 -27.910156 33.828125 -29.273438 28.859375 -29.765625 C 22.023438 -30.429688 16.648438 -32.429688 12.734375 -35.765625 C 8.816406 -39.097656 6.859375 -43.273438 6.859375 -48.296875 C 6.859375 -51.828125 7.863281 -54.875 9.875 -57.4375 C 11.894531 -60 14.65625 -61.953125 18.15625 -63.296875 C 21.65625 -64.648438 25.582031 -65.328125 29.9375 -65.328125 C 34.675781 -65.328125 38.671875 -64.363281 41.921875 -62.4375 C 45.179688 -60.507812 47.941406 -57.753906 50.203125 -54.171875 C 50.859375 -53.117188 51.1875 -52.125 51.1875 -51.1875 C 51.1875 -49.976562 50.640625 -48.988281 49.546875 -48.21875 C 48.929688 -47.832031 48.210938 -47.640625 47.390625 -47.640625 C 46.554688 -47.640625 45.78125 -47.84375 45.0625 -48.25 C 44.351562 -48.664062 43.804688 -49.234375 43.421875 -49.953125 C 41.929688 -52.429688 40.066406 -54.316406 37.828125 -55.609375 C 35.597656 -56.910156 32.773438 -57.5625 29.359375 -57.5625 C 25.171875 -57.5625 21.78125 -56.75 19.1875 -55.125 C 16.59375 -53.5 15.296875 -51.140625 15.296875 -48.046875 C 15.296875 -45.179688 16.453125 -42.78125 18.765625 -40.84375 C 21.085938 -38.914062 25.222656 -37.648438 31.171875 -37.046875 C 37.796875 -36.390625 42.925781 -34.390625 46.5625 -31.046875 C 50.195312 -27.710938 52.015625 -23.316406 52.015625 -17.859375 C 52.015625 -13.890625 50.9375 -10.484375 48.78125 -7.640625 C 46.632812 -4.804688 43.785156 -2.6875 40.234375 -1.28125 C 36.679688 0.125 32.863281 0.828125 28.78125 0.828125 Z M 28.78125 0.828125 "/></g></g></g><g fill="#2b2d42" fill-opacity="1"><g transform="translate(90.054485, 314.625007)"><g><path d="M 48.046875 -23.328125 C 48.046875 -22.273438 47.6875 -21.40625 46.96875 -20.71875 C 46.257812 -20.03125 45.351562 -19.6875 44.25 -19.6875 L 12.8125 -19.6875 C 13.425781 -15.820312 15.175781 -12.703125 18.0625 -10.328125 C 20.957031 -7.960938 24.503906 -6.78125 28.703125 -6.78125 C 30.347656 -6.78125 32.066406 -7.082031 33.859375 -7.6875 C 35.660156 -8.289062 37.140625 -9.035156 38.296875 -9.921875 C 39.066406 -10.523438 39.972656 -10.828125 41.015625 -10.828125 C 42.066406 -10.828125 42.894531 -10.550781 43.5 -10 C 44.488281 -9.175781 44.984375 -8.238281 44.984375 -7.1875 C 44.984375 -6.195312 44.546875 -5.375 43.671875 -4.71875 C 41.796875 -3.226562 39.460938 -2.015625 36.671875 -1.078125 C 33.890625 -0.140625 31.234375 0.328125 28.703125 0.328125 C 24.179688 0.328125 20.128906 -0.648438 16.546875 -2.609375 C 12.960938 -4.566406 10.160156 -7.28125 8.140625 -10.75 C 6.128906 -14.226562 5.125 -18.171875 5.125 -22.578125 C 5.125 -26.984375 6.070312 -30.9375 7.96875 -34.4375 C 9.875 -37.945312 12.519531 -40.675781 15.90625 -42.625 C 19.300781 -44.582031 23.148438 -45.5625 27.453125 -45.5625 C 31.703125 -45.5625 35.367188 -44.625 38.453125 -42.75 C 41.546875 -40.882812 43.914062 -38.269531 45.5625 -34.90625 C 47.21875 -31.539062 48.046875 -27.679688 48.046875 -23.328125 Z M 27.453125 -38.453125 C 23.429688 -38.453125 20.164062 -37.347656 17.65625 -35.140625 C 15.144531 -32.941406 13.5625 -29.992188 12.90625 -26.296875 L 40.4375 -26.296875 C 39.945312 -29.992188 38.570312 -32.941406 36.3125 -35.140625 C 34.050781 -37.347656 31.097656 -38.453125 27.453125 -38.453125 Z M 27.453125 -38.453125 "/></g></g></g><g fill="#2b2d42" fill-opacity="1"><g transform="translate(141.410749, 314.625007)"><g><path d="M 29.9375 -45.65625 C 33.738281 -45.65625 37.15625 -44.828125 40.1875 -43.171875 C 43.226562 -41.515625 45.601562 -39.097656 47.3125 -35.921875 C 49.019531 -32.753906 49.875 -28.941406 49.875 -24.484375 L 49.875 -4.140625 C 49.875 -2.921875 49.472656 -1.910156 48.671875 -1.109375 C 47.867188 -0.316406 46.863281 0.078125 45.65625 0.078125 C 44.4375 0.078125 43.425781 -0.316406 42.625 -1.109375 C 41.832031 -1.910156 41.4375 -2.921875 41.4375 -4.140625 L 41.4375 -24.484375 C 41.4375 -28.941406 40.234375 -32.316406 37.828125 -34.609375 C 35.429688 -36.898438 32.25 -38.046875 28.28125 -38.046875 C 25.96875 -38.046875 23.859375 -37.578125 21.953125 -36.640625 C 20.054688 -35.703125 18.566406 -34.429688 17.484375 -32.828125 C 16.410156 -31.234375 15.875 -29.441406 15.875 -27.453125 L 15.875 -4.140625 C 15.875 -2.921875 15.488281 -1.910156 14.71875 -1.109375 C 13.945312 -0.316406 12.925781 0.078125 11.65625 0.078125 C 10.445312 0.078125 9.441406 -0.316406 8.640625 -1.109375 C 7.835938 -1.910156 7.4375 -2.921875 7.4375 -4.140625 L 7.4375 -41.015625 C 7.4375 -42.285156 7.835938 -43.304688 8.640625 -44.078125 C 9.441406 -44.847656 10.445312 -45.234375 11.65625 -45.234375 C 12.925781 -45.234375 13.945312 -44.847656 14.71875 -44.078125 C 15.488281 -43.304688 15.875 -42.285156 15.875 -41.015625 L 15.875 -40.109375 C 17.644531 -41.867188 19.738281 -43.234375 22.15625 -44.203125 C 24.582031 -45.171875 27.175781 -45.65625 29.9375 -45.65625 Z M 29.9375 -45.65625 "/></g></g></g><g fill="#2b2d42" fill-opacity="1"><g transform="translate(197.811671, 314.625007)"><g><path d="M 23.90625 0.328125 C 20.15625 0.328125 16.625 -0.25 13.3125 -1.40625 C 10.007812 -2.5625 7.421875 -4.078125 5.546875 -5.953125 C 4.828125 -6.671875 4.46875 -7.523438 4.46875 -8.515625 C 4.46875 -9.835938 5.019531 -10.914062 6.125 -11.75 C 7.164062 -12.519531 8.128906 -12.90625 9.015625 -12.90625 C 10.117188 -12.90625 11.164062 -12.40625 12.15625 -11.40625 C 13.207031 -10.25 14.78125 -9.242188 16.875 -8.390625 C 18.96875 -7.535156 21.203125 -7.109375 23.578125 -7.109375 C 26.710938 -7.109375 29.148438 -7.628906 30.890625 -8.671875 C 32.628906 -9.722656 33.5 -11.132812 33.5 -12.90625 C 33.5 -14.613281 32.640625 -16.03125 30.921875 -17.15625 C 29.210938 -18.289062 26.320312 -19.242188 22.25 -20.015625 C 11.664062 -22.054688 6.375 -26.410156 6.375 -33.078125 C 6.375 -35.785156 7.171875 -38.070312 8.765625 -39.9375 C 10.367188 -41.8125 12.460938 -43.21875 15.046875 -44.15625 C 17.640625 -45.09375 20.398438 -45.5625 23.328125 -45.5625 C 26.910156 -45.5625 30.117188 -44.984375 32.953125 -43.828125 C 35.796875 -42.671875 38.046875 -41.070312 39.703125 -39.03125 C 40.410156 -38.15625 40.765625 -37.273438 40.765625 -36.390625 C 40.765625 -35.453125 40.296875 -34.597656 39.359375 -33.828125 C 38.753906 -33.378906 37.984375 -33.15625 37.046875 -33.15625 C 35.617188 -33.15625 34.320312 -33.679688 33.15625 -34.734375 C 31.78125 -36.003906 30.320312 -36.898438 28.78125 -37.421875 C 27.238281 -37.941406 25.363281 -38.203125 23.15625 -38.203125 C 20.625 -38.203125 18.539062 -37.773438 16.90625 -36.921875 C 15.28125 -36.066406 14.46875 -34.867188 14.46875 -33.328125 C 14.46875 -32.222656 14.742188 -31.296875 15.296875 -30.546875 C 15.847656 -29.804688 16.894531 -29.117188 18.4375 -28.484375 C 19.988281 -27.859375 22.222656 -27.238281 25.140625 -26.625 C 31.148438 -25.414062 35.410156 -23.734375 37.921875 -21.578125 C 40.429688 -19.429688 41.6875 -16.648438 41.6875 -13.234375 C 41.6875 -10.691406 40.992188 -8.382812 39.609375 -6.3125 C 38.234375 -4.25 36.207031 -2.625 33.53125 -1.4375 C 30.863281 -0.257812 27.65625 0.328125 23.90625 0.328125 Z M 23.90625 0.328125 "/></g></g></g><g fill="#2b2d42" fill-opacity="1"><g transform="translate(242.717404, 314.625007)"><g><path d="M 48.046875 -23.328125 C 48.046875 -22.273438 47.6875 -21.40625 46.96875 -20.71875 C 46.257812 -20.03125 45.351562 -19.6875 44.25 -19.6875 L 12.8125 -19.6875 C 13.425781 -15.820312 15.175781 -12.703125 18.0625 -10.328125 C 20.957031 -7.960938 24.503906 -6.78125 28.703125 -6.78125 C 30.347656 -6.78125 32.066406 -7.082031 33.859375 -7.6875 C 35.660156 -8.289062 37.140625 -9.035156 38.296875 -9.921875 C 39.066406 -10.523438 39.972656 -10.828125 41.015625 -10.828125 C 42.066406 -10.828125 42.894531 -10.550781 43.5 -10 C 44.488281 -9.175781 44.984375 -8.238281 44.984375 -7.1875 C 44.984375 -6.195312 44.546875 -5.375 43.671875 -4.71875 C 41.796875 -3.226562 39.460938 -2.015625 36.671875 -1.078125 C 33.890625 -0.140625 31.234375 0.328125 28.703125 0.328125 C 24.179688 0.328125 20.128906 -0.648438 16.546875 -2.609375 C 12.960938 -4.566406 10.160156 -7.28125 8.140625 -10.75 C 6.128906 -14.226562 5.125 -18.171875 5.125 -22.578125 C 5.125 -26.984375 6.070312 -30.9375 7.96875 -34.4375 C 9.875 -37.945312 12.519531 -40.675781 15.90625 -42.625 C 19.300781 -44.582031 23.148438 -45.5625 27.453125 -45.5625 C 31.703125 -45.5625 35.367188 -44.625 38.453125 -42.75 C 41.546875 -40.882812 43.914062 -38.269531 45.5625 -34.90625 C 47.21875 -31.539062 48.046875 -27.679688 48.046875 -23.328125 Z M 27.453125 -38.453125 C 23.429688 -38.453125 20.164062 -37.347656 17.65625 -35.140625 C 15.144531 -32.941406 13.5625 -29.992188 12.90625 -26.296875 L 40.4375 -26.296875 C 39.945312 -29.992188 38.570312 -32.941406 36.3125 -35.140625 C 34.050781 -37.347656 31.097656 -38.453125 27.453125 -38.453125 Z M 27.453125 -38.453125 "/></g></g></g><g fill="#08a88a" fill-opacity="1"><g transform="translate(294.06361, 314.625007)"><g><path d="M 12.578125 0 C 11.359375 0 10.332031 -0.410156 9.5 -1.234375 C 8.675781 -2.066406 8.265625 -3.085938 8.265625 -4.296875 L 8.265625 -60.296875 C 8.265625 -61.554688 8.675781 -62.585938 9.5 -63.390625 C 10.332031 -64.191406 11.359375 -64.59375 12.578125 -64.59375 C 13.835938 -64.59375 14.867188 -64.191406 15.671875 -63.390625 C 16.472656 -62.585938 16.875 -61.554688 16.875 -60.296875 L 16.875 -36.5625 L 55.25 -36.5625 L 55.25 -60.296875 C 55.25 -61.554688 55.660156 -62.585938 56.484375 -63.390625 C 57.316406 -64.191406 58.335938 -64.59375 59.546875 -64.59375 C 60.753906 -64.59375 61.757812 -64.191406 62.5625 -63.390625 C 63.363281 -62.585938 63.765625 -61.554688 63.765625 -60.296875 L 63.765625 -4.296875 C 63.765625 -3.023438 63.363281 -1.988281 62.5625 -1.1875 C 61.757812 -0.394531 60.753906 0 59.546875 0 C 58.335938 0 57.316406 -0.410156 56.484375 -1.234375 C 55.660156 -2.066406 55.25 -3.085938 55.25 -4.296875 L 55.25 -28.953125 L 16.875 -28.953125 L 16.875 -4.296875 C 16.875 -3.085938 16.472656 -2.066406 15.671875 -1.234375 C 14.867188 -0.410156 13.835938 0 12.578125 0 Z M 12.578125 0 "/></g></g></g><g fill="#08a88a" fill-opacity="1"><g transform="translate(366.0947, 314.625007)"><g><path d="M 27.953125 -45.5625 C 32.203125 -45.5625 36.046875 -44.554688 39.484375 -42.546875 C 42.929688 -40.535156 45.660156 -37.78125 47.671875 -34.28125 C 49.691406 -30.78125 50.703125 -26.878906 50.703125 -22.578125 L 50.703125 -4.140625 C 50.703125 -2.921875 50.300781 -1.910156 49.5 -1.109375 C 48.695312 -0.316406 47.691406 0.078125 46.484375 0.078125 C 45.265625 0.078125 44.253906 -0.316406 43.453125 -1.109375 C 42.660156 -1.910156 42.265625 -2.921875 42.265625 -4.140625 L 42.265625 -7.1875 C 40.328125 -4.820312 37.976562 -2.976562 35.21875 -1.65625 C 32.46875 -0.332031 29.492188 0.328125 26.296875 0.328125 C 22.328125 0.328125 18.726562 -0.660156 15.5 -2.640625 C 12.28125 -4.628906 9.742188 -7.375 7.890625 -10.875 C 6.046875 -14.375 5.125 -18.273438 5.125 -22.578125 C 5.125 -26.878906 6.113281 -30.78125 8.09375 -34.28125 C 10.082031 -37.78125 12.828125 -40.535156 16.328125 -42.546875 C 19.828125 -44.554688 23.703125 -45.5625 27.953125 -45.5625 Z M 27.953125 -7.109375 C 30.710938 -7.109375 33.207031 -7.785156 35.4375 -9.140625 C 37.664062 -10.492188 39.414062 -12.335938 40.6875 -14.671875 C 41.957031 -17.015625 42.59375 -19.648438 42.59375 -22.578125 C 42.59375 -25.503906 41.957031 -28.148438 40.6875 -30.515625 C 39.414062 -32.890625 37.664062 -34.75 35.4375 -36.09375 C 33.207031 -37.445312 30.710938 -38.125 27.953125 -38.125 C 25.191406 -38.125 22.695312 -37.445312 20.46875 -36.09375 C 18.238281 -34.75 16.472656 -32.890625 15.171875 -30.515625 C 13.878906 -28.148438 13.234375 -25.503906 13.234375 -22.578125 C 13.234375 -19.648438 13.878906 -17.015625 15.171875 -14.671875 C 16.472656 -12.335938 18.238281 -10.492188 20.46875 -9.140625 C 22.695312 -7.785156 25.191406 -7.109375 27.953125 -7.109375 Z M 27.953125 -7.109375 "/></g></g></g><g fill="#08a88a" fill-opacity="1"><g transform="translate(421.916723, 314.625007)"><g><path d="M 55.5 -45.234375 C 56.65625 -45.234375 57.519531 -44.929688 58.09375 -44.328125 C 58.675781 -43.722656 58.96875 -42.894531 58.96875 -41.84375 C 58.96875 -40.96875 58.828125 -40.171875 58.546875 -39.453125 L 46.3125 -2.734375 C 46.039062 -1.960938 45.546875 -1.3125 44.828125 -0.78125 C 44.109375 -0.257812 43.304688 0 42.421875 0 C 41.484375 0 40.640625 -0.257812 39.890625 -0.78125 C 39.148438 -1.3125 38.671875 -1.960938 38.453125 -2.734375 L 30.359375 -32.75 L 21.828125 -2.734375 C 21.554688 -1.960938 21.046875 -1.3125 20.296875 -0.78125 C 19.554688 -0.257812 18.742188 0 17.859375 0 C 16.984375 0 16.171875 -0.257812 15.421875 -0.78125 C 14.679688 -1.3125 14.171875 -1.960938 13.890625 -2.734375 L 1.65625 -39.453125 C 1.4375 -40.171875 1.328125 -40.941406 1.328125 -41.765625 C 1.328125 -44.078125 2.484375 -45.234375 4.796875 -45.234375 C 5.847656 -45.234375 6.71875 -44.929688 7.40625 -44.328125 C 8.09375 -43.722656 8.65625 -42.757812 9.09375 -41.4375 L 18.03125 -13.5625 L 26.46875 -42.09375 C 26.738281 -43.03125 27.21875 -43.785156 27.90625 -44.359375 C 28.601562 -44.941406 29.5 -45.234375 30.59375 -45.234375 C 31.644531 -45.234375 32.515625 -44.941406 33.203125 -44.359375 C 33.890625 -43.785156 34.375 -43.03125 34.65625 -42.09375 L 42.09375 -12.984375 L 51.1875 -41.4375 C 51.957031 -43.96875 53.394531 -45.234375 55.5 -45.234375 Z M 55.5 -45.234375 "/></g></g></g><g fill="#08a88a" fill-opacity="1"><g transform="translate(482.12181, 314.625007)"><g><path d="M 41.59375 -5.953125 C 42.207031 -5.296875 42.515625 -4.46875 42.515625 -3.46875 C 42.515625 -2.257812 42.015625 -1.238281 41.015625 -0.40625 C 40.191406 0.25 39.3125 0.578125 38.375 0.578125 C 37.164062 0.578125 36.171875 0.0820312 35.390625 -0.90625 L 19.6875 -20.34375 L 15.546875 -16.703125 L 15.546875 -4.046875 C 15.546875 -2.835938 15.171875 -1.859375 14.421875 -1.109375 C 13.679688 -0.367188 12.707031 0 11.5 0 C 10.28125 0 9.296875 -0.367188 8.546875 -1.109375 C 7.804688 -1.859375 7.4375 -2.835938 7.4375 -4.046875 L 7.4375 -60.53125 C 7.4375 -61.75 7.804688 -62.726562 8.546875 -63.46875 C 9.296875 -64.21875 10.28125 -64.59375 11.5 -64.59375 C 12.707031 -64.59375 13.679688 -64.21875 14.421875 -63.46875 C 15.171875 -62.726562 15.546875 -61.75 15.546875 -60.53125 L 15.546875 -26.875 L 35.640625 -44.828125 C 36.359375 -45.546875 37.210938 -45.90625 38.203125 -45.90625 C 39.367188 -45.90625 40.304688 -45.460938 41.015625 -44.578125 C 41.734375 -43.859375 42.09375 -43.003906 42.09375 -42.015625 C 42.09375 -40.859375 41.648438 -39.921875 40.765625 -39.203125 L 25.5625 -25.640625 Z M 41.59375 -5.953125 "/></g></g></g><g fill="#2b2d42" fill-opacity="1"><g transform="translate(529.176885, 314.625007)"><g/></g></g></svg>